<svg xmlns="http://www.w3.org/2000/svg" width="60" height="59" viewBox="0 0 60 59"><defs><style>.a{fill:#76dad7;}</style></defs><path class="a" d="M21.667,0a6.818,6.818,0,0,0-6.437,5.557c-.078,0-.151-.025-.229-.025-3.681,0-6.667,3.3-6.667,7.375a8.083,8.083,0,0,0,.173,1.618,9.261,9.261,0,0,0-5.173,8.523A9.909,9.909,0,0,0,4.2,27.07,9.38,9.38,0,0,0,0,35.031a9.268,9.268,0,0,0,5.148,8.515A9.265,9.265,0,0,0,5,45.172c0,4.582,3.357,8.3,7.5,8.3a6.827,6.827,0,0,0,1.253-.139A7.591,7.591,0,0,0,20.833,59c4.143,0,7.5-3.715,7.5-8.3V23.675a8.842,8.842,0,0,1-4,2.119.867.867,0,0,1-1-.909V23.02a.9.9,0,0,1,.6-.883,6.35,6.35,0,0,0,4.4-6.227V7.375C28.333,3.3,25.348,0,21.667,0ZM60,35.031a9.38,9.38,0,0,0-4.2-7.962,9.926,9.926,0,0,0,.869-4.023,9.261,9.261,0,0,0-5.173-8.523,8.083,8.083,0,0,0,.173-1.618c0-4.074-2.985-7.375-6.667-7.375-.078,0-.151.023-.229.025A6.818,6.818,0,0,0,38.333,0c-3.681,0-6.667,3.3-6.667,7.375V15.91a6.349,6.349,0,0,0,4.4,6.227.9.9,0,0,1,.6.883v1.864a.867.867,0,0,1-1,.909,8.848,8.848,0,0,1-4-2.119V50.7c0,4.582,3.357,8.3,7.5,8.3a7.591,7.591,0,0,0,7.08-5.671,6.729,6.729,0,0,0,1.253.139c4.143,0,7.5-3.715,7.5-8.3a9.266,9.266,0,0,0-.148-1.626A9.268,9.268,0,0,0,60,35.031Z"/></svg>