<svg xmlns="http://www.w3.org/2000/svg" width="6" height="6" viewBox="0 0 6 6"><path d="M11,8a3,3,0,1,0,3,3A3,3,0,0,0,11,8Zm0,5.419A2.419,2.419,0,1,1,13.419,11,2.418,2.418,0,0,1,11,13.419ZM12.3,12.2a1.791,1.791,0,0,1-1.259.5,1.7,1.7,0,0,1-.009-3.4,1.751,1.751,0,0,1,1.181.421.145.145,0,0,1,.023.185l-.22.34a.145.145,0,0,1-.212.035,1.255,1.255,0,0,0-.746-.273.914.914,0,0,0-.943.969.952.952,0,0,0,.947,1.012,1.217,1.217,0,0,0,.8-.329.145.145,0,0,1,.216.021l.24.329a.145.145,0,0,1-.014.188Z" transform="translate(-8 -8)"/></svg>