<svg xmlns="http://www.w3.org/2000/svg" width="55" height="59" viewBox="0 0 55 59"><defs><style>.a{fill:#76dad7;}</style></defs><path class="a" d="M48.125,7.375H36.667C36.667,3.307,32.556,0,27.5,0s-9.167,3.307-9.167,7.375H6.875C3.079,7.375,0,9.853,0,12.906V53.469C0,56.522,3.079,59,6.875,59h41.25C51.921,59,55,56.522,55,53.469V12.906C55,9.853,51.921,7.375,48.125,7.375ZM27.5,4.609c1.9,0,3.438,1.233,3.438,2.766S29.4,10.141,27.5,10.141s-3.437-1.233-3.437-2.766S25.6,4.609,27.5,4.609ZM41.25,39.641a1.055,1.055,0,0,1-1.146.922H32.083v6.453a1.055,1.055,0,0,1-1.146.922H24.063a1.055,1.055,0,0,1-1.146-.922V40.563H14.9a1.055,1.055,0,0,1-1.146-.922V34.109a1.055,1.055,0,0,1,1.146-.922h8.021V26.734a1.055,1.055,0,0,1,1.146-.922h6.875a1.055,1.055,0,0,1,1.146.922v6.453H40.1a1.055,1.055,0,0,1,1.146.922Zm0-22.125a1.055,1.055,0,0,1-1.146.922H14.9a1.055,1.055,0,0,1-1.146-.922V15.672A1.055,1.055,0,0,1,14.9,14.75H40.1a1.055,1.055,0,0,1,1.146.922Z"/></svg>