<svg xmlns="http://www.w3.org/2000/svg" width="249.031" height="60" viewBox="0 0 249.031 60"><defs><style>.a{fill:#76dad7;}</style></defs><g transform="translate(-64.484 -241)"><path class="a" d="M40.5,8C22.546,8,8,21.2,8,37.5S22.546,67,40.5,67,73,53.8,73,37.5,58.454,8,40.5,8Zm7.483,41.645L36.424,42.02a1.4,1.4,0,0,1-.642-1.154V20.847a1.51,1.51,0,0,1,1.573-1.427h6.29a1.51,1.51,0,0,1,1.573,1.427v16.38l8.322,5.5a1.343,1.343,0,0,1,.341,2l-3.7,4.615a1.691,1.691,0,0,1-2.2.309Z" transform="translate(56.484 233)"/><path class="a" d="M48.125,7.375H36.667C36.667,3.307,32.556,0,27.5,0s-9.167,3.307-9.167,7.375H6.875C3.079,7.375,0,9.853,0,12.906V53.469C0,56.522,3.079,59,6.875,59h41.25C51.921,59,55,56.522,55,53.469V12.906C55,9.853,51.921,7.375,48.125,7.375ZM27.5,4.609c1.9,0,3.438,1.233,3.438,2.766S29.4,10.141,27.5,10.141s-3.437-1.233-3.437-2.766S25.6,4.609,27.5,4.609ZM41.25,39.641a1.055,1.055,0,0,1-1.146.922H32.083v6.453a1.055,1.055,0,0,1-1.146.922H24.063a1.055,1.055,0,0,1-1.146-.922V40.563H14.9a1.055,1.055,0,0,1-1.146-.922V34.109a1.055,1.055,0,0,1,1.146-.922h8.021V26.734a1.055,1.055,0,0,1,1.146-.922h6.875a1.055,1.055,0,0,1,1.146.922v6.453H40.1a1.055,1.055,0,0,1,1.146.922Zm0-22.125a1.055,1.055,0,0,1-1.146.922H14.9a1.055,1.055,0,0,1-1.146-.922V15.672A1.055,1.055,0,0,1,14.9,14.75H40.1a1.055,1.055,0,0,1,1.146.922Z" transform="translate(164 242)"/><path class="a" d="M21.667,0a6.818,6.818,0,0,0-6.437,5.557c-.078,0-.151-.025-.229-.025-3.681,0-6.667,3.3-6.667,7.375a8.083,8.083,0,0,0,.173,1.618,9.261,9.261,0,0,0-5.173,8.523A9.909,9.909,0,0,0,4.2,27.07,9.38,9.38,0,0,0,0,35.031a9.268,9.268,0,0,0,5.148,8.515A9.265,9.265,0,0,0,5,45.172c0,4.582,3.357,8.3,7.5,8.3a6.827,6.827,0,0,0,1.253-.139A7.591,7.591,0,0,0,20.833,59c4.143,0,7.5-3.715,7.5-8.3V23.675a8.842,8.842,0,0,1-4,2.119.867.867,0,0,1-1-.909V23.02a.9.9,0,0,1,.6-.883,6.35,6.35,0,0,0,4.4-6.227V7.375C28.333,3.3,25.348,0,21.667,0ZM60,35.031a9.38,9.38,0,0,0-4.2-7.962,9.926,9.926,0,0,0,.869-4.023,9.261,9.261,0,0,0-5.173-8.523,8.083,8.083,0,0,0,.173-1.618c0-4.074-2.985-7.375-6.667-7.375-.078,0-.151.023-.229.025A6.818,6.818,0,0,0,38.333,0c-3.681,0-6.667,3.3-6.667,7.375V15.91a6.349,6.349,0,0,0,4.4,6.227.9.9,0,0,1,.6.883v1.864a.867.867,0,0,1-1,.909,8.848,8.848,0,0,1-4-2.119V50.7c0,4.582,3.357,8.3,7.5,8.3a7.591,7.591,0,0,0,7.08-5.671,6.729,6.729,0,0,0,1.253.139c4.143,0,7.5-3.715,7.5-8.3a9.266,9.266,0,0,0-.148-1.626A9.268,9.268,0,0,0,60,35.031Z" transform="translate(253.516 241)"/></g></svg>